HIERARCHY
ROOT Hips
{
	OFFSET 0.000000 0.000000 0.000000
	CHANNELS 6 Xposition Yposition Zposition Zrotation Yrotation Xrotation 
	JOINT LHipJoint
	{
		OFFSET 0.000000 0.000000 0.000000
		CHANNELS 3 Zrotation Yrotation Xrotation
		JOINT LeftUpLeg
		{
			OFFSET 1.363060 -1.794630 0.839290
			CHANNELS 3 Zrotation Yrotation Xrotation
			JOINT LeftLeg
			{
				OFFSET 2.448110 -6.726130 0.000000
				CHANNELS 3 Zrotation Yrotation Xrotation
				JOINT LeftFoot
				{
					OFFSET 2.562200 -7.039590 0.000000
					CHANNELS 3 Zrotation Yrotation Xrotation
					JOINT LeftToeBase
					{
						OFFSET 0.157640 -0.433110 2.322550
						CHANNELS 3 Zrotation Yrotation Xrotation
						End Site
						{
							OFFSET 0.000000 0.000000 0.000000
						}
					}
				}
			}
		}
	}
	JOINT RHipJoint
	{
		OFFSET 0.000000 0.000000 0.000000
		CHANNELS 3 Zrotation Yrotation Xrotation
		JOINT RightUpLeg
		{
			OFFSET -1.305520 -1.794630 0.839290
			CHANNELS 3 Zrotation Yrotation Xrotation
			JOINT RightLeg
			{
				OFFSET -2.542530 -6.985550 0.000000
				CHANNELS 3 Zrotation Yrotation Xrotation
				JOINT RightFoot
				{
					OFFSET -2.568260 -7.056230 0.000000
					CHANNELS 3 Zrotation Yrotation Xrotation
					JOINT RightToeBase
					{
						OFFSET -0.164730 -0.452590 2.363150
						CHANNELS 3 Zrotation Yrotation Xrotation
						End Site
						{
							OFFSET 0.000000 0.000000 0.000000
						}
					}
				}
			}
		}
	}
	JOINT LowerBack
	{
		OFFSET 0.000000 0.000000 0.000000
		CHANNELS 3 Zrotation Yrotation Xrotation
		JOINT Spine
		{
			OFFSET 0.028270 2.035590 -0.193380
			CHANNELS 3 Zrotation Yrotation Xrotation
			JOINT Spine1
			{
				OFFSET 0.056720 2.048850 -0.042750
				CHANNELS 3 Zrotation Yrotation Xrotation
				JOINT Neck
				{
					OFFSET 0.000000 0.000000 0.000000
					CHANNELS 3 Zrotation Yrotation Xrotation
					JOINT Neck1
					{
						OFFSET -0.054170 1.746240 0.172020
						CHANNELS 3 Zrotation Yrotation Xrotation
						JOINT Head
						{
							OFFSET 0.104070 1.761360 -0.123970
							CHANNELS 3 Zrotation Yrotation Xrotation
							End Site
							{
								OFFSET 0.000000 0.000000 0.000000
							}
						}
					}
				}
				JOINT LeftShoulder
				{
					OFFSET 0.000000 0.000000 0.000000
					CHANNELS 3 Zrotation Yrotation Xrotation
					JOINT LeftArm
					{
						OFFSET 3.362410 1.200890 -0.311210
						CHANNELS 3 Zrotation Yrotation Xrotation
						JOINT LeftForeArm
						{
							OFFSET 4.983000 -0.000000 -0.000000
							CHANNELS 3 Zrotation Yrotation Xrotation
							JOINT LeftHand
							{
								OFFSET 3.483560 -0.000000 -0.000000
								CHANNELS 3 Zrotation Yrotation Xrotation
								JOINT LeftFingerBase
								{
									OFFSET 0.000000 0.000000 0.000000
									CHANNELS 3 Zrotation Yrotation Xrotation
									JOINT LeftHandIndex1
									{
										OFFSET 0.715260 -0.000000 -0.000000
										CHANNELS 3 Zrotation Yrotation Xrotation
										End Site
										{
											OFFSET 0.000000 0.000000 0.000000
										}
									}
								}
								JOINT LThumb
								{
									OFFSET 0.000000 0.000000 0.000000
									CHANNELS 3 Zrotation Yrotation Xrotation
									End Site
									{
										OFFSET 0.000000 0.000000 0.000000
									}
								}
							}
						}
					}
				}
				JOINT RightShoulder
				{
					OFFSET 0.000000 0.000000 0.000000
					CHANNELS 3 Zrotation Yrotation Xrotation
					JOINT RightArm
					{
						OFFSET -3.136600 1.374050 -0.404650
						CHANNELS 3 Zrotation Yrotation Xrotation
						JOINT RightForeArm
						{
							OFFSET -5.241900 -0.000000 -0.000000
							CHANNELS 3 Zrotation Yrotation Xrotation
							JOINT RightHand
							{
								OFFSET -3.444170 -0.000000 -0.000000
								CHANNELS 3 Zrotation Yrotation Xrotation
								JOINT RightFingerBase
								{
									OFFSET 0.000000 0.000000 0.000000
									CHANNELS 3 Zrotation Yrotation Xrotation
									JOINT RightHandIndex1
									{
										OFFSET -0.622530 -0.000000 -0.000000
										CHANNELS 3 Zrotation Yrotation Xrotation
										End Site
										{
											OFFSET 0.000000 0.000000 0.000000
										}
									}
								}
								JOINT RThumb
								{
									OFFSET 0.000000 0.000000 0.000000
									CHANNELS 3 Zrotation Yrotation Xrotation
									End Site
									{
										OFFSET 0.000000 0.000000 0.000000
									}
								}
							}
						}
					}
				}
			}
		}
	}
}
MOTION
Frames: 4
Frame Time: 0.008333
1.970356 17.856967 6.218566 -1.030901 0.078276 2.203777 -3.835439 -0.152938 1.912682 -13.838094 1.332430 0.572015 -0.801247 4.168364 11.515278 0.136821 1.518508 -5.244814 2.043200 -8.955400 -25.655900 3.067236 1.852842 -0.533834 15.567659 1.080632 -1.549816 -0.804671 -7.757840 18.934459 1.538226 -10.939607 -11.036914 -0.711200 -5.389700 15.023400 -1.801252 -1.355550 4.362987 0.825951 -1.647126 -3.178097 3.779304 -1.228502 -3.369875 -3.626901 -2.155163 -10.335298 2.840774 -2.403616 17.250459 0.015200 -1.049800 8.194700 2.761973 5.397579 -0.667127 -94.317678 9.097995 4.382599 15.546623 -33.370250 -5.051891 -0.385287 0.681353 5.291462 5.994233 -12.630716 -1.484100 -7.125000 0.000000 0.000000 -14.333200 16.882200 9.869100 -2.004066 -5.830703 -0.737461 88.776420 0.096425 8.370024 -5.413348 20.805225 -0.928147 -1.333501 -1.451469 13.318685 -10.105880 -37.770349 5.416100 7.125000 0.000000 0.000000 30.709900 -63.903800 -14.748600 
1.970858 17.858575 6.207817 -1.118493 0.159700 2.197271 -3.833394 -0.159778 1.905201 -13.732505 1.321061 0.410932 -0.782893 4.248845 11.737862 0.157556 1.428792 -5.263115 2.023500 -8.914800 -25.529000 3.068266 1.853155 -0.534278 15.663239 1.022820 -1.564580 -0.798160 -7.734333 18.866086 1.548093 -10.979230 -10.964856 -0.727500 -5.449700 15.195800 -1.591648 -1.254255 4.448478 0.790591 -1.503650 -3.136146 3.605978 -1.159832 -3.364967 -3.126488 -1.995053 -10.179462 2.419012 -2.232584 17.301077 -0.188800 -0.972500 8.181000 2.758636 5.389028 -0.671679 -94.268496 8.956110 4.893147 15.653930 -33.499657 -5.090746 -0.383431 0.684196 5.239002 5.967605 -12.640726 -1.478800 -7.125000 0.000000 0.000000 -14.351900 16.870400 9.886700 -2.003124 -5.852570 -0.741939 88.887967 0.162457 8.222892 -5.488199 20.933009 -0.946476 -1.330799 -1.474058 13.317198 -9.958176 -38.061163 5.366000 7.125000 0.000000 0.000000 31.175500 -64.090600 -15.128800 
1.970758 17.858474 6.196968 -1.158213 0.255636 2.156842 -3.831594 -0.166197 1.898848 -13.676725 1.319298 0.312146 -0.767456 4.310537 11.910406 0.179162 1.330371 -5.260767 2.020900 -8.909500 -25.512700 3.068218 1.853428 -0.534293 15.711547 0.931796 -1.570997 -0.795847 -7.729729 18.848962 1.560959 -11.037244 -10.934187 -0.708800 -5.380600 14.997400 -1.467776 -1.198815 4.538399 0.771434 -1.425797 -3.079322 3.510835 -1.122486 -3.331308 -2.408394 -1.766469 -9.981132 1.740030 -1.972655 17.423170 -0.504800 -0.860900 8.184900 2.759882 5.373847 -0.672928 -94.280590 8.778092 5.296896 15.695063 -33.555459 -5.103010 -0.381571 0.686366 5.158140 6.066253 -12.644574 -1.502000 -7.125000 0.000000 0.000000 -14.286600 16.859300 9.842300 -2.001613 -5.884456 -0.751809 88.939721 0.239947 8.114836 -5.552374 21.043656 -0.966043 -1.321070 -1.491847 13.400848 -9.617306 -38.219820 5.186900 7.125000 0.000000 0.000000 31.680500 -64.117400 -15.417800 
1.968849 17.857570 6.184411 -1.119442 0.329603 2.105688 -3.831580 -0.173852 1.890788 -13.701619 1.309645 0.232240 -0.753974 4.368443 12.071147 0.187601 1.285029 -5.216600 2.092500 -9.056200 -25.971200 3.068337 1.855215 -0.534579 15.689219 0.875402 -1.558506 -0.793114 -7.726870 18.835578 1.583792 -11.143969 -10.907517 -0.663000 -5.207500 14.501200 -1.484713 -1.176459 4.639646 0.756205 -1.399073 -3.011860 3.502980 -1.109978 -3.286264 -1.927270 -1.594026 -9.829919 1.171515 -1.750600 17.591270 -0.749900 -0.772400 8.216500 2.764172 5.365745 -0.671794 -94.331996 8.591162 5.542358 15.716033 -33.583969 -5.106523 -0.379978 0.687998 5.124526 6.099063 -12.715478 -1.517300 -7.125000 0.000000 0.000000 -14.261500 16.787000 9.847100 -2.000793 -5.910004 -0.759912 88.961819 0.340955 8.226543 -5.628268 21.174548 -0.984563 -1.311695 -1.513438 13.235262 -9.432246 -38.423993 5.102500 7.125000 0.000000 0.000000 32.091000 -64.223800 -15.716800 
